<?xml version="1.0" encoding="UTF-8"?>
<svg version="1.1" xmlns="http://www.w3.org/2000/svg" width="96" height="96">
<path d="M0 0 C2.875 1.4375 2.875 1.4375 5 3 C5.66 3.33 6.32 3.66 7 4 C7.78375 3.690625 8.5675 3.38125 9.375 3.0625 C19.2074618 0.18057154 27.69909787 2.43074624 37 6 C41.44755338 7.8464766 41.44755338 7.8464766 46 7 C50.29986714 6.58128635 53.95702654 6.58715634 58 8.1875 C60.4705421 10.42642878 60.83514839 11.70296785 61 15 C60.67 15.99 60.34 16.98 60 18 C61.15172078 21.39757631 62.40830821 24.67599011 63.87109375 27.94921875 C65.90131323 32.73820536 66.24902332 36.70436457 66.0078125 41.8984375 C65.84197229 44.05939082 65.84197229 44.05939082 67 46 C67.17522676 48.26645766 67.26728256 50.53972854 67.3125 52.8125 C67.36857422 54.64748047 67.36857422 54.64748047 67.42578125 56.51953125 C66.92795525 60.58891625 65.66310857 61.98525768 63 65 C62.835 66.19625 62.67 67.3925 62.5 68.625 C62 72 62 72 60.5 73.75 C55.32304372 76.33847814 49.87774382 78.56881392 44 78 C43.01 79.98 43.01 79.98 42 82 C37.47118371 82.17760064 34.06668506 82.09143803 30 80 C27.22957891 77.22957891 27.60203894 75.23466195 27.375 71.375 C27.30023438 70.18648438 27.22546875 68.99796875 27.1484375 67.7734375 C27.09945312 66.85820313 27.05046875 65.94296875 27 65 C26.01386719 65.18175781 25.02773438 65.36351563 24.01171875 65.55078125 C19.82280208 66.14648674 15.98295306 65.76314 11.8125 65.1875 C11.11447266 65.10435547 10.41644531 65.02121094 9.69726562 64.93554688 C6.11392977 64.46845172 3.10285959 63.90020084 0 62 C0.12375 62.845625 0.2475 63.69125 0.375 64.5625 C-0.15126799 69.38662327 -2.39856596 71.87018232 -6 75 C-8.4375 76.125 -8.4375 76.125 -11 76 C-12.6708231 75.34477525 -14.33984322 74.67668693 -15.95703125 73.8984375 C-19.18831209 72.47741533 -22.56775195 71.60180988 -25.9609375 70.6484375 C-28 70 -28 70 -29 69 C-29.30808767 65.42533316 -29.27845278 61.83630686 -29.3125 58.25 C-29.34150391 57.24710938 -29.37050781 56.24421875 -29.40039062 55.2109375 C-29.46481908 47.73723722 -29.46481908 47.73723722 -26.98046875 43.796875 C-26.32691406 43.20390625 -25.67335938 42.6109375 -25 42 C-25.66 41.34 -26.32 40.68 -27 40 C-28.32488721 33.98705034 -28.17683714 30.50651771 -25 25 C-20.79487179 21 -20.79487179 21 -18 21 C-17.62875 19.948125 -17.62875 19.948125 -17.25 18.875 C-16 16 -16 16 -13.875 13.0625 C-11.72804486 10.15428921 -11.72804486 10.15428921 -12 6.875 C-12 4 -12 4 -10.5 1.625 C-7.05424495 -0.61474079 -3.9442028 -0.67435674 0 0 Z " fill="#FDF6DC" transform="translate(29,7)"/>
<path d="M0 0 C2.875 1.4375 2.875 1.4375 5 3 C5.66 3.33 6.32 3.66 7 4 C7.78375 3.690625 8.5675 3.38125 9.375 3.0625 C19.2074618 0.18057154 27.69909787 2.43074624 37 6 C41.44755338 7.8464766 41.44755338 7.8464766 46 7 C50.29986714 6.58128635 53.95702654 6.58715634 58 8.1875 C60.4705421 10.42642878 60.83514839 11.70296785 61 15 C60.67 15.99 60.34 16.98 60 18 C61.15172078 21.39757631 62.40830821 24.67599011 63.87109375 27.94921875 C65.90131323 32.73820536 66.24902332 36.70436457 66.0078125 41.8984375 C65.84197229 44.05939082 65.84197229 44.05939082 67 46 C67.17522676 48.26645766 67.26728256 50.53972854 67.3125 52.8125 C67.36857422 54.64748047 67.36857422 54.64748047 67.42578125 56.51953125 C66.92795525 60.58891625 65.66310857 61.98525768 63 65 C62.835 66.19625 62.67 67.3925 62.5 68.625 C62 72 62 72 60.5 73.75 C55.32304372 76.33847814 49.87774382 78.56881392 44 78 C43.01 79.98 43.01 79.98 42 82 C37.47118371 82.17760064 34.06668506 82.09143803 30 80 C27.22957891 77.22957891 27.60203894 75.23466195 27.375 71.375 C27.30023438 70.18648438 27.22546875 68.99796875 27.1484375 67.7734375 C27.09945312 66.85820313 27.05046875 65.94296875 27 65 C26.01386719 65.18175781 25.02773438 65.36351563 24.01171875 65.55078125 C19.82280208 66.14648674 15.98295306 65.76314 11.8125 65.1875 C11.11447266 65.10435547 10.41644531 65.02121094 9.69726562 64.93554688 C6.11392977 64.46845172 3.10285959 63.90020084 0 62 C0.12375 62.845625 0.2475 63.69125 0.375 64.5625 C-0.15126799 69.38662327 -2.39856596 71.87018232 -6 75 C-8.4375 76.125 -8.4375 76.125 -11 76 C-12.6708231 75.34477525 -14.33984322 74.67668693 -15.95703125 73.8984375 C-19.18831209 72.47741533 -22.56775195 71.60180988 -25.9609375 70.6484375 C-28 70 -28 70 -29 69 C-29.30808767 65.42533316 -29.27845278 61.83630686 -29.3125 58.25 C-29.34150391 57.24710938 -29.37050781 56.24421875 -29.40039062 55.2109375 C-29.46481908 47.73723722 -29.46481908 47.73723722 -26.98046875 43.796875 C-26.32691406 43.20390625 -25.67335938 42.6109375 -25 42 C-25.66 41.34 -26.32 40.68 -27 40 C-28.32488721 33.98705034 -28.17683714 30.50651771 -25 25 C-20.79487179 21 -20.79487179 21 -18 21 C-17.62875 19.948125 -17.62875 19.948125 -17.25 18.875 C-16 16 -16 16 -13.875 13.0625 C-11.72804486 10.15428921 -11.72804486 10.15428921 -12 6.875 C-12 4 -12 4 -10.5 1.625 C-7.05424495 -0.61474079 -3.9442028 -0.67435674 0 0 Z M-6 5 C-4.79618552 7.49361571 -3.54571278 9.68143083 -2 12 C-2.70125 12 -3.4025 12 -4.125 12 C-8.55436977 13.54065035 -10.67598167 17.03593077 -13 21 C-13.17273437 21.72574219 -13.34546875 22.45148437 -13.5234375 23.19921875 C-13.68070313 23.79347656 -13.83796875 24.38773438 -14 25 C-15.65438613 25.69658363 -17.32254318 26.36096883 -19 27 C-21.4340196 29.35008789 -21.95256017 30.62048133 -22.375 34 C-22.25078792 37.02627718 -22.25078792 37.02627718 -20.4375 39.0625 C-19 41 -19 41 -19.0625 43.5 C-20 46 -20 46 -22.125 47.875 C-24.41176623 49.96638459 -24.41176623 49.96638459 -23.8125 53.5 C-23.36913674 55.40987252 -22.90035774 57.31704356 -22.3125 59.1875 C-21.88655898 61.65795789 -22.72848027 62.90573222 -24 65 C-23.67 65.33 -23.34 65.66 -23 66 C-21.88625 65.938125 -20.7725 65.87625 -19.625 65.8125 C-17.830625 65.9053125 -17.830625 65.9053125 -16 66 C-14.375 68 -14.375 68 -13 70 C-10.37374861 70.33425735 -10.37374861 70.33425735 -8 70 C-8 69.01 -8 68.02 -8 67 C-6.515 66.505 -6.515 66.505 -5 66 C-5.061875 64.906875 -5.12375 63.81375 -5.1875 62.6875 C-5 59 -5 59 -3.48828125 57.26953125 C-2.99714844 56.85058594 -2.50601562 56.43164062 -2 56 C2 57.33333333 6 58.66666667 10 60 C11.70016844 60.08178114 13.40336297 60.10749501 15.10546875 60.09765625 C16.57983398 60.09282227 16.57983398 60.09282227 18.08398438 60.08789062 C19.10814453 60.07951172 20.13230469 60.07113281 21.1875 60.0625 C22.22326172 60.05798828 23.25902344 60.05347656 24.32617188 60.04882812 C26.88417266 60.0370401 29.44205733 60.02058515 32 60 C31.95117188 61.98567708 31.90234375 63.97135417 31.85351562 65.95703125 C32.06135028 68.85563185 33.28350719 70.71134291 35 73 C34.34 73 33.68 73 33 73 C33 73.99 33 74.98 33 76 C35.97 76.495 35.97 76.495 39 77 C40.5916085 73.51835641 41.4917836 70.83591209 41 67 C39.60042803 64.71515694 39.60042803 64.71515694 38 63 C38.66 62.34 39.32 61.68 40 61 C42.0625 63.125 42.0625 63.125 44 66 C43.75 69.3125 43.75 69.3125 43 72 C48.65394631 72.34615998 52.03006806 71.43425238 57 69 C56.87625 68.154375 56.7525 67.30875 56.625 66.4375 C57.03743366 62.65685815 57.50565035 62.12902111 60 59.5 C62.28977059 57.04242117 62.94742648 56.29207514 63.5625 52.875 C63.19123869 49.96883646 63.19123869 49.96883646 61.5 47.8125 C59.82992832 44.6811156 59.90700873 43.4659505 60.0625 40 C60.27016519 33.05265562 58.96519649 24.67776309 54.48828125 19.125 C53.0450287 17.7989964 53.0450287 17.7989964 51 18 C51 17.34 51 16.68 51 16 C52.32 15.67 53.64 15.34 55 15 C55 14.01 55 13.02 55 12 C48.96908865 11.52469109 48.96908865 11.52469109 43.4375 13.5 C42.963125 13.995 42.48875 14.49 42 15 C41.401875 14.401875 40.80375 13.80375 40.1875 13.1875 C31.62138826 7.30879586 21.07219001 7.10213621 11 8 C8.29346121 8.73240707 6.43056324 9.57723127 4 11 C3.731875 10.38125 3.46375 9.7625 3.1875 9.125 C2.04443152 6.7004767 2.04443152 6.7004767 -1 5 C-3.62531524 4.83286431 -3.62531524 4.83286431 -6 5 Z " fill="#FBF8F8" transform="translate(29,7)"/>
<path d="M0 0 C6.47556391 0.61090226 6.47556391 0.61090226 8.9375 2.4375 C10 4 10 4 10 6 C10.845625 5.505 11.69125 5.01 12.5625 4.5 C21.77284927 0.57672749 33.93844082 2.35401912 43 6 C45.20437129 7.19653617 47.01823125 8.44672179 49 10 C49.39832031 9.50886719 49.79664062 9.01773437 50.20703125 8.51171875 C52.5121755 6.56816575 53.7196719 6.683464 56.6875 6.8125 C57.49574219 6.83957031 58.30398437 6.86664062 59.13671875 6.89453125 C59.75160156 6.92933594 60.36648437 6.96414062 61 7 C61 7.99 61 8.98 61 10 C59.68 10.33 58.36 10.66 57 11 C57 11.66 57 12.32 57 13 C57.598125 13.185625 58.19625 13.37125 58.8125 13.5625 C61.99504229 15.65388494 62.80465294 18.54127389 64 22 C64.391875 23.0725 64.78375 24.145 65.1875 25.25 C65.92040443 28.63263585 66.02925774 31.20243622 65.9375 34.625 C65.83342294 39.11255779 66.43346627 41.25713831 69 45 C69.5625 47.875 69.5625 47.875 69 51 C67.54571493 52.86317102 65.96218465 54.53985702 64.3359375 56.25390625 C62.68954064 58.09345165 62.68954064 58.09345165 62.625 61.4375 C62.74875 62.283125 62.8725 63.12875 63 64 C58.03006806 66.43425238 54.65394631 67.34615998 49 67 C49.37125 65.6696875 49.37125 65.6696875 49.75 64.3125 C50.35289652 60.8829449 50.35289652 60.8829449 48.0625 58.125 C47.381875 57.42375 46.70125 56.7225 46 56 C45.34 56.99 44.68 57.98 44 59 C44.495 59.391875 44.99 59.78375 45.5 60.1875 C47 62 47 62 47.3125 64.375 C46.97548803 67.20590057 46.18142573 69.41563122 45 72 C42.03 71.505 42.03 71.505 39 71 C39 70.01 39 69.02 39 68 C39.66 68 40.32 68 41 68 C40.2265625 66.8553125 40.2265625 66.8553125 39.4375 65.6875 C38.963125 64.800625 38.48875 63.91375 38 63 C38.33 62.01 38.66 61.02 39 60 C41.52588702 62.36292656 42.88820837 63.66462511 44 67 C44.16687448 64.58354218 44.16687448 64.58354218 44 62 C43.34 61.34 42.68 60.68 42 60 C42.39040529 56.3438235 43.6869014 53.25729619 45.0625 49.875 C48.64972153 39.25787548 48.95685579 26.08750667 44.16796875 15.8125 C42.95914349 13.93659726 41.64132686 12.50494153 40 11 C40.33 10.34 40.66 9.68 41 9 C42.98 10.98 44.96 12.96 47 15 C47 14.01 47 13.02 47 12 C38.25365368 6.48599906 29.39991212 3.82435776 19 5 C15.89722451 5.78243904 12.95438631 6.77447679 10 8 C8.35 6.35 6.7 4.7 5 3 C6.32 4.65 7.64 6.3 9 8 C8.67 8.66 8.34 9.32 8 10 C7.278125 9.773125 6.55625 9.54625 5.8125 9.3125 C2.13038823 8.90337647 0.87878663 9.72727371 -2 12 C-3.80796103 14.56610666 -3.80796103 14.56610666 -5 17 C-3.68 17.33 -2.36 17.66 -1 18 C-1.77085938 18.39832031 -2.54171875 18.79664062 -3.3359375 19.20703125 C-4.33882812 19.73683594 -5.34171875 20.26664063 -6.375 20.8125 C-7.37273438 21.33457031 -8.37046875 21.85664062 -9.3984375 22.39453125 C-12.22876117 23.89164684 -12.22876117 23.89164684 -14 27 C-14.16699232 30.12521833 -14.16699232 30.12521833 -14 33 C-13.34 33 -12.68 33 -12 33 C-11.835 32.29875 -11.67 31.5975 -11.5 30.875 C-9.33892733 26.73294405 -5.95912841 24.4002216 -2 22 C-1.34 22 -0.68 22 0 22 C0.28875 21.195625 0.5775 20.39125 0.875 19.5625 C2 17 2 17 4 16 C3.70222656 16.6909375 3.40445312 17.381875 3.09765625 18.09375 C-0.50641185 27.63619364 -1.51261512 37.88256206 -2 48 C-2.33 48 -2.66 48 -3 48 C-3.02706445 45.10410348 -3.04687029 42.20846205 -3.0625 39.3125 C-3.07087891 38.49587891 -3.07925781 37.67925781 -3.08789062 36.83789062 C-3.10442051 32.75500916 -3.03035098 28.98348293 -2 25 C-5.51228413 27.31021897 -8.48929041 29.35121169 -9.76953125 33.484375 C-10.04659129 35.23477303 -10.30080505 36.988951 -10.53125 38.74609375 C-11.15604647 41.75032345 -12.87832084 42.87832084 -15 45 C-14.80923275 48.62457773 -14.14490236 51.56529291 -13 55 C-13.66 55.99 -14.32 56.98 -15 58 C-12.69 58 -10.38 58 -8 58 C-7.87625 58.639375 -7.7525 59.27875 -7.625 59.9375 C-7.41875 60.618125 -7.2125 61.29875 -7 62 C-6.34 62.33 -5.68 62.66 -5 63 C-5.37904208 59.70924004 -5.37904208 59.70924004 -7 57 C-7.3125 54.625 -7.3125 54.625 -7 52 C-5 50.1875 -5 50.1875 -3 49 C-3.350625 49.5775 -3.70125 50.155 -4.0625 50.75 C-5.16512438 53.3962985 -5.04953951 54.37615122 -4 57 C-3.34 57.66 -2.68 58.32 -2 59 C-2.12375 57.88625 -2.12375 57.88625 -2.25 56.75 C-2 54 -2 54 0.0625 52 C0.701875 51.34 1.34125 50.68 2 50 C1.69208308 48.328451 1.35613097 46.66194453 1 45 C2.4375 41.6875 2.4375 41.6875 4 39 C4.99435406 42.09354597 4.87840996 43.90279155 4 47 C11.69954418 51.107434 18.27413195 52.8324877 27 53 C27 50.69 27 48.38 27 46 C24.69 45.67 22.38 45.34 20 45 C20 44.67 20 44.34 20 44 C26.15234375 43.90234375 26.15234375 43.90234375 28 44 C29 45 29 45 29.09765625 46.84765625 C29.06510417 48.8984375 29.03255208 50.94921875 29 53 C32.63 52.67 36.26 52.34 40 52 C40 48.37 40 44.74 40 41 C36.7 41 33.4 41 30 41 C30 40.34 30 39.68 30 39 C33.63 39 37.26 39 41 39 C39.35 35.7 37.7 32.4 36 29 C34.68 29 33.36 29 32 29 C30.76942269 30.52202983 29.54119958 32.04641492 28.34765625 33.59765625 C26.16267393 35.87130452 24.05853543 35.87516182 21 36 C19.00034285 36.03703069 16.99943335 36.04760556 15 36 C15 33.69 15 31.38 15 29 C14.54109375 29.42152344 14.0821875 29.84304687 13.609375 30.27734375 C12.99578125 30.82519531 12.3821875 31.37304688 11.75 31.9375 C11.14671875 32.48277344 10.5434375 33.02804688 9.921875 33.58984375 C7.91532695 35.06212799 6.42997551 35.57529189 4 36 C4 35.34 4 34.68 4 34 C5.7578125 33.05598958 7.515625 32.11197917 9.2734375 31.16796875 C11.30502365 29.95236507 11.30502365 29.95236507 13 27 C11.68 26.67 10.36 26.34 9 26 C12.465 25.505 12.465 25.505 16 25 C16.66 23.35 17.32 21.7 18 20 C18.33 20 18.66 20 19 20 C18.85795259 21.58367747 18.71119847 23.16693318 18.5625 24.75 C18.48128906 25.63171875 18.40007813 26.5134375 18.31640625 27.421875 C18.03761535 29.69350452 17.61209423 31.79851823 17 34 C19.31 33.34 21.62 32.68 24 32 C24 32.66 24 33.32 24 34 C29.57206229 30.59485082 30.98349305 25.90307063 33 20 C39.11486486 27.54166667 39.11486486 27.54166667 40 33 C39.75328508 25.48753063 39.15433566 20.29850891 35 14 C35 13.01 35 12.02 35 11 C36.8125 11.5 36.8125 11.5 39 13 C41.75112633 19.03209922 42.61724147 24.4122282 42.875 31 C42.91616943 31.90903076 42.95733887 32.81806152 42.99975586 33.75463867 C43.2470561 42.1356951 42.02897025 49.89558211 40 58 C39.34 57.01 38.68 56.02 38 55 C35.83788966 54.64948572 35.83788966 54.64948572 33.34375 54.84765625 C32.40273438 54.87537109 31.46171875 54.90308594 30.4921875 54.93164062 C28.52840862 55.01752391 26.56484455 55.10850158 24.6015625 55.20507812 C18.27520485 55.38081028 13.84679666 54.54981244 8.17382812 51.67749023 C5.98546125 50.76483734 5.98546125 50.76483734 3.75976562 51.73461914 C1.76587831 52.89357561 1.76587831 52.89357561 1.3125 55.375 C1.209375 56.24125 1.10625 57.1075 1 58 C0.67516582 59.33542939 0.3449145 60.66961551 0 62 C-0.66 62 -1.32 62 -2 62 C-2 62.99 -2 63.98 -2 65 C-4.25 65.25 -4.25 65.25 -7 65 C-7.639375 64.34 -8.27875 63.68 -8.9375 63 C-10.91259502 60.65853138 -10.91259502 60.65853138 -14.25 60.75 C-15.1575 60.8325 -16.065 60.915 -17 61 C-17 57 -17 57 -16.375 54.9375 C-15.70336491 52.68369294 -15.70336491 52.68369294 -18 50 C-18.4375 47.6875 -18.4375 47.6875 -18 45 C-17.154375 43.989375 -16.30875 42.97875 -15.4375 41.9375 C-12.74892282 39.35524127 -12.74892282 39.35524127 -13.0625 36.8125 C-14.08742496 34.74922841 -14.08742496 34.74922841 -16 32 C-16.49819995 28.18046705 -16.30357932 26.48789534 -14.25 23.1875 C-12 21 -12 21 -9.875 20.5625 C-9.25625 20.376875 -8.6375 20.19125 -8 20 C-7.30562253 18.00945124 -6.64389782 16.00744615 -6 14 C-3.93919445 10.68744589 -2.02168617 8.31785792 1.8125 7.125 C2.8953125 7.063125 2.8953125 7.063125 4 7 C3.01 5.824375 3.01 5.824375 2 4.625 C0 2 0 2 0 0 Z " fill="#6E5749" transform="translate(23,12)"/>
<path d="M0 0 C0.99 0.33 1.98 0.66 3 1 C3.33 2.98 3.66 4.96 4 7 C5.65 5.68 7.3 4.36 9 3 C8 5 7 7 6 9 C7.32 9 8.64 9 10 9 C8.61198929 12.35435922 7.11371 14.11290303 4 16 C3.01 16 2.02 16 1 16 C1 16.66 1 17.32 1 18 C1.61488281 17.59007813 2.22976562 17.18015625 2.86328125 16.7578125 C6.2421875 14.50520833 9.62109375 12.25260417 13 10 C12.67 12.64 12.34 15.28 12 18 C20.34670007 17.72268061 20.34670007 17.72268061 27 13 C27.66 12.01 28.32 11.02 29 10 C31.25 10 31.25 10 34 11 C36.05695657 13.99014453 38 17.313902 38 21 C34.37 21 30.74 21 27 21 C27 21.66 27 22.32 27 23 C30.3 23 33.6 23 37 23 C37 26.63 37 30.26 37 34 C34.59454362 35.20272819 33.05003047 35.10071472 30.375 35.0625 C29.14910156 35.04896484 29.14910156 35.04896484 27.8984375 35.03515625 C27.27195313 35.02355469 26.64546875 35.01195312 26 35 C25.505 31.04 25.505 31.04 25 27 C24.01 27 23.02 27 22 27 C22.66 27.33 23.32 27.66 24 28 C24 30.31 24 32.62 24 35 C14.44229897 35.91509904 8.19942221 33.88476217 0 29 C0.33 27.35 0.66 25.7 1 24 C-0.49821059 27.37097383 -1 29.20442119 -1 33 C-1.495 33.433125 -1.99 33.86625 -2.5 34.3125 C-4.86083267 36.96843676 -4.1926369 39.59674813 -4 43 C-6.5625 40.75 -6.5625 40.75 -9 38 C-8.8125 35.6875 -8.8125 35.6875 -8 34 C-8.33 34 -8.66 34 -9 34 C-9.20551329 37.69923924 -8.68248981 39.74718637 -7 43 C-7.33 43.66 -7.66 44.32 -8 45 C-8.99 44.67 -9.98 44.34 -11 44 C-11 42.68 -11 41.36 -11 40 C-11.99 40.495 -11.99 40.495 -13 41 C-14.99960012 41.039992 -17.00047242 41.04346799 -19 41 C-18.62875 40.071875 -18.2575 39.14375 -17.875 38.1875 C-17.58625 37.135625 -17.2975 36.08375 -17 35 C-17.66 34.01 -18.32 33.02 -19 32 C-19.4375 29.6875 -19.4375 29.6875 -19 27 C-17.73389718 25.53911213 -16.4635976 24.08094769 -15.1484375 22.6640625 C-13.49185058 20.26370186 -13.73102331 17.86923572 -13.578125 15.03515625 C-12.39242019 10.86115486 -8.37745706 8.4619277 -5 6 C-4 8 -4 8 -4 10 C-3.79503906 9.44570313 -3.59007812 8.89140625 -3.37890625 8.3203125 C-3.10949219 7.59585938 -2.84007813 6.87140625 -2.5625 6.125 C-2.29566406 5.40570313 -2.02882813 4.68640625 -1.75390625 3.9453125 C-1 2 -1 2 0 0 Z " fill="#F7E9E0" transform="translate(26,30)"/>
<path d="M0 0 C6.52307692 0.49230769 6.52307692 0.49230769 8.9375 3.0625 C9.288125 3.701875 9.63875 4.34125 10 5 C8.02 4.34 6.04 3.68 4 3 C5.65 4.65 7.3 6.3 9 8 C8.67 8.66 8.34 9.32 8 10 C7.278125 9.773125 6.55625 9.54625 5.8125 9.3125 C2.13038823 8.90337647 0.87878663 9.72727371 -2 12 C-3.80796103 14.56610666 -3.80796103 14.56610666 -5 17 C-3.68 17.33 -2.36 17.66 -1 18 C-1.77085938 18.39832031 -2.54171875 18.79664062 -3.3359375 19.20703125 C-4.33882812 19.73683594 -5.34171875 20.26664063 -6.375 20.8125 C-7.37273438 21.33457031 -8.37046875 21.85664062 -9.3984375 22.39453125 C-12.22876117 23.89164684 -12.22876117 23.89164684 -14 27 C-14.16699232 30.12521833 -14.16699232 30.12521833 -14 33 C-13.34 33 -12.68 33 -12 33 C-11.835 32.29875 -11.67 31.5975 -11.5 30.875 C-9.33892733 26.73294405 -5.95912841 24.4002216 -2 22 C-1.34 22 -0.68 22 0 22 C0.28875 21.195625 0.5775 20.39125 0.875 19.5625 C2 17 2 17 4 16 C3.70222656 16.6909375 3.40445312 17.381875 3.09765625 18.09375 C-0.50641185 27.63619364 -1.51261512 37.88256206 -2 48 C-2.33 48 -2.66 48 -3 48 C-3.02706445 45.10410348 -3.04687029 42.20846205 -3.0625 39.3125 C-3.07087891 38.49587891 -3.07925781 37.67925781 -3.08789062 36.83789062 C-3.10442051 32.75500916 -3.03035098 28.98348293 -2 25 C-5.51228413 27.31021897 -8.48929041 29.35121169 -9.76953125 33.484375 C-10.04659129 35.23477303 -10.30080505 36.988951 -10.53125 38.74609375 C-11.15604647 41.75032345 -12.87832084 42.87832084 -15 45 C-14.80923275 48.62457773 -14.14490236 51.56529291 -13 55 C-13.66 55.99 -14.32 56.98 -15 58 C-12.69 58 -10.38 58 -8 58 C-7.87625 58.639375 -7.7525 59.27875 -7.625 59.9375 C-7.41875 60.618125 -7.2125 61.29875 -7 62 C-6.34 62.33 -5.68 62.66 -5 63 C-5.37904208 59.70924004 -5.37904208 59.70924004 -7 57 C-7.3125 54.625 -7.3125 54.625 -7 52 C-5 50.1875 -5 50.1875 -3 49 C-3.350625 49.5775 -3.70125 50.155 -4.0625 50.75 C-5.16512438 53.3962985 -5.04953951 54.37615122 -4 57 C-3.34 57.66 -2.68 58.32 -2 59 C-2.12375 57.88625 -2.12375 57.88625 -2.25 56.75 C-2 54 -2 54 0.0625 52 C0.701875 51.34 1.34125 50.68 2 50 C1.69208308 48.328451 1.35613097 46.66194453 1 45 C2.4375 41.6875 2.4375 41.6875 4 39 C4.99435406 42.09354597 4.87840996 43.90279155 4 47 C11.69954418 51.107434 18.27413195 52.8324877 27 53 C27 50.69 27 48.38 27 46 C24.69 45.67 22.38 45.34 20 45 C20 44.67 20 44.34 20 44 C26.15234375 43.90234375 26.15234375 43.90234375 28 44 C29 45 29 45 29.09765625 46.84765625 C29.06510417 48.8984375 29.03255208 50.94921875 29 53 C32.63 52.67 36.26 52.34 40 52 C40 48.37 40 44.74 40 41 C36.7 41 33.4 41 30 41 C30 40.34 30 39.68 30 39 C33.63 39 37.26 39 41 39 C39.35 35.7 37.7 32.4 36 29 C34.68 29 33.36 29 32 29 C30.76942269 30.52202983 29.54119958 32.04641492 28.34765625 33.59765625 C26.16267393 35.87130452 24.05853543 35.87516182 21 36 C19.00034285 36.03703069 16.99943335 36.04760556 15 36 C15 33.69 15 31.38 15 29 C14.54109375 29.42152344 14.0821875 29.84304687 13.609375 30.27734375 C12.99578125 30.82519531 12.3821875 31.37304688 11.75 31.9375 C11.14671875 32.48277344 10.5434375 33.02804688 9.921875 33.58984375 C7.91532695 35.06212799 6.42997551 35.57529189 4 36 C4 35.34 4 34.68 4 34 C5.7578125 33.05598958 7.515625 32.11197917 9.2734375 31.16796875 C11.30502365 29.95236507 11.30502365 29.95236507 13 27 C11.68 26.67 10.36 26.34 9 26 C12.465 25.505 12.465 25.505 16 25 C16.66 23.35 17.32 21.7 18 20 C18.33 20 18.66 20 19 20 C18.85795259 21.58367747 18.71119847 23.16693318 18.5625 24.75 C18.48128906 25.63171875 18.40007813 26.5134375 18.31640625 27.421875 C18.03761535 29.69350452 17.61209423 31.79851823 17 34 C19.31 33.34 21.62 32.68 24 32 C24 32.66 24 33.32 24 34 C29.57206229 30.59485082 30.98349305 25.90307063 33 20 C39.11486486 27.54166667 39.11486486 27.54166667 40 33 C39.75328508 25.48753063 39.15433566 20.29850891 35 14 C35 13.01 35 12.02 35 11 C36.8125 11.5 36.8125 11.5 39 13 C41.75112633 19.03209922 42.61724147 24.4122282 42.875 31 C42.91616943 31.90903076 42.95733887 32.81806152 42.99975586 33.75463867 C43.2470561 42.1356951 42.02897025 49.89558211 40 58 C39.34 57.01 38.68 56.02 38 55 C35.83788966 54.64948572 35.83788966 54.64948572 33.34375 54.84765625 C32.40273438 54.87537109 31.46171875 54.90308594 30.4921875 54.93164062 C28.52840862 55.01752391 26.56484455 55.10850158 24.6015625 55.20507812 C18.27520485 55.38081028 13.84679666 54.54981244 8.17382812 51.67749023 C5.98546125 50.76483734 5.98546125 50.76483734 3.75976562 51.73461914 C1.76587831 52.89357561 1.76587831 52.89357561 1.3125 55.375 C1.209375 56.24125 1.10625 57.1075 1 58 C0.67516582 59.33542939 0.3449145 60.66961551 0 62 C-0.66 62 -1.32 62 -2 62 C-2 62.99 -2 63.98 -2 65 C-4.25 65.25 -4.25 65.25 -7 65 C-7.639375 64.34 -8.27875 63.68 -8.9375 63 C-10.91259502 60.65853138 -10.91259502 60.65853138 -14.25 60.75 C-15.1575 60.8325 -16.065 60.915 -17 61 C-17 57 -17 57 -16.375 54.9375 C-15.70336491 52.68369294 -15.70336491 52.68369294 -18 50 C-18.4375 47.6875 -18.4375 47.6875 -18 45 C-17.154375 43.989375 -16.30875 42.97875 -15.4375 41.9375 C-12.74892282 39.35524127 -12.74892282 39.35524127 -13.0625 36.8125 C-14.08742496 34.74922841 -14.08742496 34.74922841 -16 32 C-16.49819995 28.18046705 -16.30357932 26.48789534 -14.25 23.1875 C-12 21 -12 21 -9.875 20.5625 C-9.25625 20.376875 -8.6375 20.19125 -8 20 C-7.30562253 18.00945124 -6.64389782 16.00744615 -6 14 C-3.93919445 10.68744589 -2.02168617 8.31785792 1.8125 7.125 C2.8953125 7.063125 2.8953125 7.063125 4 7 C3.01 5.824375 3.01 5.824375 2 4.625 C0 2 0 2 0 0 Z " fill="#764A44" transform="translate(23,12)"/>
<path d="M0 0 C0.99 0.33 1.98 0.66 3 1 C3.33 2.98 3.66 4.96 4 7 C5.65 5.68 7.3 4.36 9 3 C8 5 7 7 6 9 C7.32 9 8.64 9 10 9 C8.61198929 12.35435922 7.11371 14.11290303 4 16 C3.01 16 2.02 16 1 16 C1.226875 16.70125 1.45375 17.4025 1.6875 18.125 C2.09528751 21.87664506 0.66285511 23.67428978 -1 27 C-0.814375 27.86625 -0.62875 28.7325 -0.4375 29.625 C-0.293125 30.40875 -0.14875 31.1925 0 32 C-0.639375 32.61875 -1.27875 33.2375 -1.9375 33.875 C-4.40343247 35.95702004 -4.40343247 35.95702004 -4.25 39.75 C-4.12625 41.35875 -4.12625 41.35875 -4 43 C-6.5625 40.75 -6.5625 40.75 -9 38 C-8.8125 35.6875 -8.8125 35.6875 -8 34 C-8.33 34 -8.66 34 -9 34 C-9.20551329 37.69923924 -8.68248981 39.74718637 -7 43 C-7.33 43.66 -7.66 44.32 -8 45 C-8.99 44.67 -9.98 44.34 -11 44 C-11 42.68 -11 41.36 -11 40 C-11.99 40.495 -11.99 40.495 -13 41 C-14.99960012 41.039992 -17.00047242 41.04346799 -19 41 C-18.62875 40.071875 -18.2575 39.14375 -17.875 38.1875 C-17.58625 37.135625 -17.2975 36.08375 -17 35 C-17.66 34.01 -18.32 33.02 -19 32 C-19.4375 29.6875 -19.4375 29.6875 -19 27 C-17.73389718 25.53911213 -16.4635976 24.08094769 -15.1484375 22.6640625 C-13.49185058 20.26370186 -13.73102331 17.86923572 -13.578125 15.03515625 C-12.39242019 10.86115486 -8.37745706 8.4619277 -5 6 C-4 8 -4 8 -4 10 C-3.79503906 9.44570313 -3.59007812 8.89140625 -3.37890625 8.3203125 C-3.10949219 7.59585938 -2.84007813 6.87140625 -2.5625 6.125 C-2.29566406 5.40570313 -2.02882813 4.68640625 -1.75390625 3.9453125 C-1 2 -1 2 0 0 Z " fill="#E08E84" transform="translate(26,30)"/>
<path d="M0 0 C2 0 2 0 3.4375 1.390625 C4.2109375 2.31101563 4.2109375 2.31101563 5 3.25 C5.7734375 4.15492187 5.7734375 4.15492187 6.5625 5.078125 C9.14189873 8.52666895 10.0530664 10.23053714 9.75 14.625 C9 18 9 18 7 20 C6.01 20 5.02 20 4 20 C4 20.66 4 21.32 4 22 C5.98 21.67 7.96 21.34 10 21 C12.11984464 24.44474755 12.62880273 26.99138262 12 31 C10.55533436 32.89822345 8.97520359 34.58869339 7.3359375 36.3203125 C5.73807017 38.03146102 5.73807017 38.03146102 5.625 40.9375 C5.74875 41.618125 5.8725 42.29875 6 43 C4.68 42.67 3.36 42.34 2 42 C1.67 42.99 1.34 43.98 1 45 C-0.32 44.67 -1.64 44.34 -3 44 C-3.1546875 43.13375 -3.1546875 43.13375 -3.3125 42.25 C-3.87117946 39.89737445 -3.87117946 39.89737445 -5.625 38.0625 C-7 36 -7 36 -7 33.5625 C-5.69065897 30.20731361 -3.59082995 28.46444801 -1 26 C0.29519995 23.83379456 0.29519995 23.83379456 1 22 C1.66 22.33 2.32 22.66 3 23 C3.32098157 14.64259099 3.21819111 7.77729519 0 0 Z " fill="#DB817F" transform="translate(78,32)"/>
<path d="M0 0 C0.33 0.66 0.66 1.32 1 2 C1.61875 2.226875 2.2375 2.45375 2.875 2.6875 C6.06741952 4.65928853 6.8263136 7.60394882 8 11 C8.391875 12.0725 8.78375 13.145 9.1875 14.25 C9.92040443 17.63263585 10.02925774 20.20243622 9.9375 23.625 C9.83342294 28.11255779 10.43346627 30.25713831 13 34 C13.5625 36.875 13.5625 36.875 13 40 C11.54571493 41.86317102 9.96218465 43.53985702 8.3359375 45.25390625 C6.68954064 47.09345165 6.68954064 47.09345165 6.625 50.4375 C6.74875 51.283125 6.8725 52.12875 7 53 C2.03006806 55.43425238 -1.34605369 56.34615998 -7 56 C-6.7525 55.113125 -6.505 54.22625 -6.25 53.3125 C-5.64710348 49.8829449 -5.64710348 49.8829449 -7.9375 47.125 C-8.618125 46.42375 -9.29875 45.7225 -10 45 C-10.66 45.99 -11.32 46.98 -12 48 C-11.505 48.391875 -11.01 48.78375 -10.5 49.1875 C-9 51 -9 51 -8.6875 53.375 C-9.02451197 56.20590057 -9.81857427 58.41563122 -11 61 C-12.98 60.67 -14.96 60.34 -17 60 C-17 59.01 -17 58.02 -17 57 C-16.34 57 -15.68 57 -15 57 C-15.515625 56.236875 -16.03125 55.47375 -16.5625 54.6875 C-17.036875 53.800625 -17.51125 52.91375 -18 52 C-17.67 51.01 -17.34 50.02 -17 49 C-14.47411298 51.36292656 -13.11179163 52.66462511 -12 56 C-11.83312552 53.58354218 -11.83312552 53.58354218 -12 51 C-12.66 50.34 -13.32 49.68 -14 49 C-13.75 46.6875 -13.75 46.6875 -13 44 C-12.814375 43.113125 -12.62875 42.22625 -12.4375 41.3125 C-10.7054551 38.5261669 -9.960616 38.4602645 -6.875 37.6875 C-5.59625 37.460625 -4.3175 37.23375 -3 37 C-3.680625 37.53625 -4.36125 38.0725 -5.0625 38.625 C-7.36639548 40.90239848 -7.36639548 40.90239848 -6.8125 44.1875 C-6.27959359 46.88143219 -6.27959359 46.88143219 -5 48 C-4.34 47.01 -3.68 46.02 -3 45 C-3 47.64 -3 50.28 -3 53 C-2.01 53 -1.02 53 0 53 C0.33 52.34 0.66 51.68 1 51 C2.32 51.33 3.64 51.66 5 52 C4.71125 51.319375 4.4225 50.63875 4.125 49.9375 C4 47 4 47 5.26953125 45.3203125 C5.81996094 44.74023438 6.37039062 44.16015625 6.9375 43.5625 C9.63087653 40.70297772 9.63087653 40.70297772 10.4375 36.8125 C10.07506122 34.48253644 9.69324428 32.25304392 9 30 C7.02 30.33 5.04 30.66 3 31 C3 30.34 3 29.68 3 29 C3.639375 28.814375 4.27875 28.62875 4.9375 28.4375 C7.35127629 27.08384697 7.35127629 27.08384697 7.875 23.75 C8.00483111 19.8550666 7.70521952 17.49163998 6 14 C3.99983534 12.79117904 3.99983534 12.79117904 2 12 C1.67 11.01 1.34 10.02 1 9 C0.34 9 -0.32 9 -1 9 C-1 8.34 -1 7.68 -1 7 C2.875 8.875 2.875 8.875 4 10 C3.72965366 7.56282742 3.72965366 7.56282742 3 5 C2.01 4.34 1.02 3.68 0 3 C0 2.01 0 1.02 0 0 Z " fill="#704248" transform="translate(79,23)"/>
<path d="M0 0 C0.99 0.33 1.98 0.66 3 1 C3.33 2.98 3.66 4.96 4 7 C5.65 5.68 7.3 4.36 9 3 C8 5 7 7 6 9 C7.32 9 8.64 9 10 9 C8.61198929 12.35435922 7.11371 14.11290303 4 16 C3.01 16 2.02 16 1 16 C1.226875 16.70125 1.45375 17.4025 1.6875 18.125 C2.09528751 21.87664506 0.66285511 23.67428978 -1 27 C-0.7215625 28.299375 -0.7215625 28.299375 -0.4375 29.625 C-0.293125 30.40875 -0.14875 31.1925 0 32 C-0.9590625 32.928125 -0.9590625 32.928125 -1.9375 33.875 C-4.40343247 35.95702004 -4.40343247 35.95702004 -4.25 39.75 C-4.12625 41.35875 -4.12625 41.35875 -4 43 C-6.5625 40.75 -6.5625 40.75 -9 38 C-9 35.875 -9 35.875 -8 34 C-7.49275391 33.56131592 -6.98550781 33.12263184 -6.46289062 32.6706543 C-4.55458931 30.49133088 -4.61874884 29.26172779 -4.59375 26.39453125 C-4.57183594 25.49283203 -4.54992187 24.59113281 -4.52734375 23.66210938 C-4.51832031 22.72173828 -4.50929688 21.78136719 -4.5 20.8125 C-4.42289011 12.94178348 -3.55644744 7.11289487 0 0 Z " fill="#FBE0D3" transform="translate(26,30)"/>
<path d="M0 0 C3.601386 3.10464311 5.8980175 6.3716735 7 11 C7.23613132 15.01423245 7.17803442 18.9843348 7 23 C6.34 23 5.68 23 5 23 C4.7525 23.78375 4.505 24.5675 4.25 25.375 C3 28 3 28 1.125 29.3125 C-1 30 -1 30 -5 30 C-4.34 23.4 -3.68 16.8 -3 10 C-2.67 10 -2.34 10 -2 10 C-1.34 6.7 -0.68 3.4 0 0 Z " fill="#E6A280" transform="translate(74,32)"/>
<path d="M0 0 C2.45477986 4.36840626 2.3831598 8.08395908 2.375 13 C2.37556396 13.8470752 2.37612793 14.69415039 2.37670898 15.56689453 C2.27028841 21.67880827 1.29073119 26.85504804 -1.02734375 32.5546875 C-2.02791342 35.0701759 -2.71231261 37.30578476 -3 40 C-2.34 40.66 -1.68 41.32 -1 42 C-0.875 44.625 -0.875 44.625 -1 47 C-1.99 47.495 -1.99 47.495 -3 48 C-3.4021875 46.8553125 -3.4021875 46.8553125 -3.8125 45.6875 C-4.94424112 43.12619116 -5.91223401 41.80307062 -8 40 C-7.67 39.01 -7.34 38.02 -7 37 C-6.6466598 35.421011 -6.31542805 33.83699738 -6 32.25 C-5.835 31.43015625 -5.67 30.6103125 -5.5 29.765625 C-4.19061509 22.52308971 -4.03510995 15.86933937 -4.35546875 8.5234375 C-3.94356204 4.44058197 -2.82284284 2.89493903 0 0 Z " fill="#FADDCE" transform="translate(69,32)"/>
<path d="M0 0 C0.33 0 0.66 0 1 0 C0.85795259 1.58367747 0.71119847 3.16693318 0.5625 4.75 C0.48128906 5.63171875 0.40007813 6.5134375 0.31640625 7.421875 C0.03761535 9.69350452 -0.38790577 11.79851823 -1 14 C1.31 13.34 3.62 12.68 6 12 C6 12.66 6 13.32 6 14 C11.57206229 10.59485082 12.98349305 5.90307063 15 0 C19.39828592 5.42455263 21.45537407 9.26984414 23 16 C22.34 16 21.68 16 21 16 C20.01 13.69 19.02 11.38 18 9 C16.68 9 15.36 9 14 9 C12.76942269 10.52202983 11.54119958 12.04641492 10.34765625 13.59765625 C8.16267393 15.87130452 6.05853543 15.87516182 3 16 C1.00034285 16.03703069 -1.00056665 16.04760556 -3 16 C-3 13.69 -3 11.38 -3 9 C-3.45890625 9.42152344 -3.9178125 9.84304687 -4.390625 10.27734375 C-5.00421875 10.82519531 -5.6178125 11.37304688 -6.25 11.9375 C-6.85328125 12.48277344 -7.4565625 13.02804688 -8.078125 13.58984375 C-10.08467305 15.06212799 -11.57002449 15.57529189 -14 16 C-14 15.34 -14 14.68 -14 14 C-12.2421875 13.05598958 -10.484375 12.11197917 -8.7265625 11.16796875 C-6.69497635 9.95236507 -6.69497635 9.95236507 -5 7 C-6.32 6.67 -7.64 6.34 -9 6 C-5.535 5.505 -5.535 5.505 -2 5 C-1.34 3.35 -0.68 1.7 0 0 Z " fill="#A27A72" transform="translate(41,32)"/>
<path d="M0 0 C1.24546405 2.49092811 0.7767578 3.41080733 0 6 C-0.66 6 -1.32 6 -2 6 C-2.17015625 6.56847656 -2.3403125 7.13695312 -2.515625 7.72265625 C-3.74822415 11.64992694 -4.98635392 15.193866 -7.1875 18.6875 C-10.20594167 24.20396237 -8.96556325 28.96522968 -8 35 C-9.98 35 -11.96 35 -14 35 C-13.62875 34.071875 -13.2575 33.14375 -12.875 32.1875 C-12.58625 31.135625 -12.2975 30.08375 -12 29 C-12.66 28.01 -13.32 27.02 -14 26 C-14.4375 23.6875 -14.4375 23.6875 -14 21 C-12.73389718 19.53911213 -11.4635976 18.08094769 -10.1484375 16.6640625 C-8.49185058 14.26370186 -8.73102331 11.86923572 -8.578125 9.03515625 C-7.39242019 4.86115486 -3.37745706 2.4619277 0 0 Z " fill="#FDD5D6" transform="translate(21,36)"/>
<path d="M0 0 C0.66 0.33 1.32 0.66 2 1 C2.625 3.0625 2.625 3.0625 3 5 C4.32 4.01 5.64 3.02 7 2 C7.66 2.33 8.32 2.66 9 3 C6.66666667 5.33333333 4.33333333 7.66666667 2 10 C1.54753906 10.47566406 1.09507813 10.95132813 0.62890625 11.44140625 C-0.99175781 12.99211358 -2.62572619 14.15014562 -4.5 15.375 C-7.61340281 17.5314411 -9.18077015 19.64878711 -11 23 C-11.66 23 -12.32 23 -13 23 C-13.75 20.3125 -13.75 20.3125 -14 17 C-11.3325153 12.33190178 -7.62998903 10.40403276 -3 8 C-3.66 7.67 -4.32 7.34 -5 7 C-3.35 4.69 -1.7 2.38 0 0 Z " fill="#EAD5B8" transform="translate(22,22)"/>
<path d="M0 0 C0.99435406 3.09354597 0.87840996 4.90279155 0 8 C0.74765625 8.33773437 1.4953125 8.67546875 2.265625 9.0234375 C3.25046875 9.46945313 4.2353125 9.91546875 5.25 10.375 C6.22453125 10.81585938 7.1990625 11.25671875 8.203125 11.7109375 C10.49311839 12.76638138 12.75366601 13.85543935 15 15 C9.72684667 14.5547115 4.98229776 13.91626837 0 12 C-1.64570159 13.05630262 -1.64570159 13.05630262 -3 15 C-3.2503577 18.62535976 -3.2503577 18.62535976 -3 22 C-3.99 22.33 -4.98 22.66 -6 23 C-6 23.99 -6 24.98 -6 26 C-8.25 26.25 -8.25 26.25 -11 26 C-11.639375 25.34 -12.27875 24.68 -12.9375 24 C-14.91259502 21.65853138 -14.91259502 21.65853138 -18.25 21.75 C-19.61125 21.87375 -19.61125 21.87375 -21 22 C-21.33 21.34 -21.66 20.68 -22 20 C-18.7 19.67 -15.4 19.34 -12 19 C-11.67 20.32 -11.34 21.64 -11 23 C-10.34 23.33 -9.68 23.66 -9 24 C-9.37904208 20.70924004 -9.37904208 20.70924004 -11 18 C-11.3125 15.625 -11.3125 15.625 -11 13 C-9 11.1875 -9 11.1875 -7 10 C-7.350625 10.5775 -7.70125 11.155 -8.0625 11.75 C-9.16512438 14.3962985 -9.04953951 15.37615122 -8 18 C-7.34 18.66 -6.68 19.32 -6 20 C-6.12375 18.88625 -6.12375 18.88625 -6.25 17.75 C-6 15 -6 15 -3.9375 13 C-3.298125 12.34 -2.65875 11.68 -2 11 C-2.30791692 9.328451 -2.64386903 7.66194453 -3 6 C-1.5625 2.6875 -1.5625 2.6875 0 0 Z " fill="#784245" transform="translate(27,51)"/>
<path d="M0 0 C2.11984464 3.44474755 2.62880273 5.99138262 2 10 C0.55533436 11.89822345 -1.02479641 13.58869339 -2.6640625 15.3203125 C-4.26192983 17.03146102 -4.26192983 17.03146102 -4.375 19.9375 C-4.25125 20.618125 -4.1275 21.29875 -4 22 C-5.32 21.67 -6.64 21.34 -8 21 C-8.33 21.99 -8.66 22.98 -9 24 C-9.66 23.67 -10.32 23.34 -11 23 C-10.72285156 22.48953125 -10.44570312 21.9790625 -10.16015625 21.453125 C-7.29750204 15.70744181 -6.53423499 10.91325013 -6.46875 4.50390625 C-6 2 -6 2 -4.09375 0.65234375 C-2 0 -2 0 0 0 Z " fill="#F8CAD2" transform="translate(88,53)"/>
<path d="M0 0 C0.66 0 1.32 0 2 0 C2 2.64 2 5.28 2 8 C5.96 8 9.92 8 14 8 C10.88167053 15.87006961 10.88167053 15.87006961 8 18 C7.34 18 6.68 18 6 18 C6 17.34 6 16.68 6 16 C5.05125 16.515625 4.1025 17.03125 3.125 17.5625 C2.09375 18.036875 1.0625 18.51125 0 19 C-0.66 18.67 -1.32 18.34 -2 18 C-1.67 16.88625 -1.34 15.7725 -1 14.625 C0.24429211 9.73545777 0.18495088 5.01422385 0 0 Z " fill="#EFCFB6" transform="translate(41,28)"/>
<path d="M0 0 C1.423125 -0.061875 2.84625 -0.12375 4.3125 -0.1875 C5.51326172 -0.23970703 5.51326172 -0.23970703 6.73828125 -0.29296875 C9.47851584 0.06198392 10.29171079 0.89366282 12 3 C9.36 3.33 6.72 3.66 4 4 C4.99 4.66 5.98 5.32 7 6 C7.1875 8.625 7.1875 8.625 7 11 C4.8125 12.1875 4.8125 12.1875 2 13 C-0.8125 11.625 -0.8125 11.625 -3 10 C-2.01 6.7 -1.02 3.4 0 0 Z " fill="#F1D0C8" transform="translate(29,49)"/>
<path d="M0 0 C0.33 0 0.66 0 1 0 C1.33 1.98 1.66 3.96 2 6 C3.65 4.68 5.3 3.36 7 2 C6 4 5 6 4 8 C5.32 8 6.64 8 8 8 C6.61198929 11.35435922 5.11371 13.11290303 2 15 C1.01 15 0.02 15 -1 15 C-0.79375 15.763125 -0.5875 16.52625 -0.375 17.3125 C0 20 0 20 -2 23 C-2.05447822 20.47886908 -2.09389852 17.9589415 -2.125 15.4375 C-2.14175781 14.73302734 -2.15851562 14.02855469 -2.17578125 13.30273438 C-2.22022044 8.48108178 -1.52768004 4.57702562 0 0 Z " fill="#C8987C" transform="translate(28,31)"/>
<path d="M0 0 C6.52307692 0.49230769 6.52307692 0.49230769 8.9375 3.0625 C9.288125 3.701875 9.63875 4.34125 10 5 C8.02 4.34 6.04 3.68 4 3 C5.65 4.65 7.3 6.3 9 8 C8.67 8.66 8.34 9.32 8 10 C7.278125 9.773125 6.55625 9.54625 5.8125 9.3125 C2.13038823 8.90337647 0.87878663 9.72727371 -2 12 C-3.80796103 14.56610666 -3.80796103 14.56610666 -5 17 C-3.68 17.33 -2.36 17.66 -1 18 C-1.75925781 18.39832031 -2.51851562 18.79664062 -3.30078125 19.20703125 C-4.29464844 19.73683594 -5.28851563 20.26664063 -6.3125 20.8125 C-7.29863281 21.33457031 -8.28476563 21.85664062 -9.30078125 22.39453125 C-11.61665068 23.7719876 -13.23611001 24.99530591 -15 27 C-14.61402985 24.20171644 -14.19863427 23.1794116 -12.0625 21.25 C-10 20 -10 20 -8 20 C-7.773125 19.13375 -7.54625 18.2675 -7.3125 17.375 C-5.70850532 13.25044226 -4.13066765 11.13066765 -1 8 C1.8125 7.125 1.8125 7.125 4 7 C3.01 5.824375 3.01 5.824375 2 4.625 C0 2 0 2 0 0 Z " fill="#7C6459" transform="translate(23,12)"/>
<path d="M0 0 C4.75 0.75 4.75 0.75 7 3 C7.33333333 8.33333333 7.33333333 8.33333333 6 11 C2.9681144 12.88186002 1.75482645 13 -2 13 C-1.39174965 8.65535464 -0.73832608 4.32448133 0 0 Z " fill="#81443E" transform="translate(71,49)"/>
<path d="M0 0 C2 0 2 0 3.4375 1.390625 C4.2109375 2.31101563 4.2109375 2.31101563 5 3.25 C5.7734375 4.15492187 5.7734375 4.15492187 6.5625 5.078125 C9.11330135 8.4884355 10.02473756 10.28261072 9.875 14.625 C9 18 9 18 6.9453125 19.2109375 C5.98238281 19.60152344 5.98238281 19.60152344 5 20 C4.9175 18.700625 4.835 17.40125 4.75 16.0625 C4.26732593 11.50951471 2.86193663 7.92782232 0.83984375 3.84765625 C0 2 0 2 0 0 Z " fill="#FBE3D3" transform="translate(78,32)"/>
<path d="M0 0 C0.66 0.66 1.32 1.32 2 2 C1.61121812 5.01305957 0.73543126 6.39685311 -1 9 C-0.505 9.391875 -0.01 9.78375 0.5 10.1875 C2 12 2 12 2.3125 14.375 C1.97548803 17.20590057 1.18142573 19.41563122 0 22 C-1.98 21.67 -3.96 21.34 -6 21 C-6 20.01 -6 19.02 -6 18 C-5.34 18 -4.68 18 -4 18 C-4.515625 17.236875 -5.03125 16.47375 -5.5625 15.6875 C-6.036875 14.800625 -6.51125 13.91375 -7 13 C-6.67 12.01 -6.34 11.02 -6 10 C-3.47411298 12.36292656 -2.11179163 13.66462511 -1 17 C-0.83312552 14.58354218 -0.83312552 14.58354218 -1 12 C-1.66 11.34 -2.32 10.68 -3 10 C-2.61233695 6.41411676 -1.41433748 3.30012079 0 0 Z " fill="#7F5760" transform="translate(68,62)"/>
<path d="M0 0 C3 1 3 1 4.60546875 3.73046875 C5.12753906 4.87128906 5.64960937 6.01210938 6.1875 7.1875 C6.71730469 8.31542969 7.24710938 9.44335938 7.79296875 10.60546875 C9.00112679 14.00316886 9.2437686 16.43014421 9 20 C5.5 13 5.5 13 2 6 C1.34 9.96 0.68 13.92 0 18 C-2.27474277 14.58788584 -2.56629644 12.3431471 -3.125 8.3125 C-3.29257813 7.13300781 -3.46015625 5.95351563 -3.6328125 4.73828125 C-3.75398438 3.83464844 -3.87515625 2.93101563 -4 2 C-3.34 2 -2.68 2 -2 2 C-2 3.65 -2 5.3 -2 7 C-1.34 7 -0.68 7 0 7 C0 4.69 0 2.38 0 0 Z " fill="#9D6E56" transform="translate(73,27)"/>
<path d="M0 0 C5.75 -0.125 5.75 -0.125 8 1 C8 3.31 8 5.62 8 8 C4.04 8 0.08 8 -4 8 C-2.68 7.67 -1.36 7.34 0 7 C0 4.69 0 2.38 0 0 Z " fill="#F0B2AB" transform="translate(42,57)"/>
<path d="M0 0 C1.24546405 2.49092811 0.7767578 3.41080733 0 6 C-0.66 6 -1.32 6 -2 6 C-2.19335938 6.62648438 -2.38671875 7.25296875 -2.5859375 7.8984375 C-2.84632812 8.71570312 -3.10671875 9.53296875 -3.375 10.375 C-3.63023438 11.18710937 -3.88546875 11.99921875 -4.1484375 12.8359375 C-5 15 -5 15 -7 17 C-9 15 -9 15 -9.125 11.3125 C-8.42990404 6.37461049 -5.48355992 4.21728444 -1.71484375 1.25 C-1.14894531 0.8375 -0.58304688 0.425 0 0 Z " fill="#F5D9C8" transform="translate(21,36)"/>
<path d="M0 0 C2.83022097 3.99560608 1.76210446 7.42737323 1 12 C-0.32 12 -1.64 12 -3 12 C-3 14.64 -3 17.28 -3 20 C-3.33 20 -3.66 20 -4 20 C-4.10854617 17.60293877 -4.18753157 15.21084162 -4.25 12.8125 C-4.28351563 12.13896484 -4.31703125 11.46542969 -4.3515625 10.77148438 C-4.42503051 7.00624873 -4.11393243 5.16891146 -1.984375 2.01171875 C-1.32953125 1.34785156 -0.6746875 0.68398438 0 0 Z " fill="#F6D0B6" transform="translate(69,32)"/>
<path d="M0 0 C4.39828592 5.42455263 6.45537407 9.26984414 8 16 C7.34 16 6.68 16 6 16 C5.01 13.69 4.02 11.38 3 9 C1.68 9 0.36 9 -1 9 C-3.26877535 11.41880929 -3.26877535 11.41880929 -5 14 C-5.66 13.67 -6.32 13.34 -7 13 C-6.55011719 12.61199219 -6.10023437 12.22398438 -5.63671875 11.82421875 C-3.6639014 9.62539846 -2.85108103 7.57011171 -1.8125 4.8125 C-1.46832031 3.91144531 -1.12414063 3.01039062 -0.76953125 2.08203125 C-0.51558594 1.39496094 -0.26164062 0.70789062 0 0 Z " fill="#8C554E" transform="translate(56,32)"/>
<path d="M0 0 C3.40320742 1.01176437 4.75725331 1.64843582 6.8125 4.625 C7.204375 5.40875 7.59625 6.1925 8 7 C5.64619703 10.92300495 3.35535069 11.83857315 -1 13 C-1.66 11.68 -2.32 10.36 -3 9 C-1.8125 7.4375 -1.8125 7.4375 0 6 C2.6875 6.3125 2.6875 6.3125 5 7 C3.35 4.69 1.7 2.38 0 0 Z " fill="#FBF4E3" transform="translate(26,14)"/>
<path d="M0 0 C0.33 1.32 0.66 2.64 1 4 C1.66 4 2.32 4 3 4 C2.90460938 4.62648438 2.80921875 5.25296875 2.7109375 5.8984375 C2.60007812 6.71570313 2.48921875 7.53296875 2.375 8.375 C2.25898437 9.18710938 2.14296875 9.99921875 2.0234375 10.8359375 C2.01570313 11.55007812 2.00796875 12.26421875 2 13 C2.66 13.66 3.32 14.32 4 15 C4.125 17.625 4.125 17.625 4 20 C3.34 20.33 2.68 20.66 2 21 C1.731875 20.236875 1.46375 19.47375 1.1875 18.6875 C0.05575888 16.12619116 -0.91223401 14.80307062 -3 13 C-2.67 12.01 -2.34 11.02 -2 10 C-1.62775582 8.27463463 -1.2749994 6.54499691 -0.9375 4.8125 C-0.76089844 3.91144531 -0.58429687 3.01039062 -0.40234375 2.08203125 C-0.26957031 1.39496094 -0.13679688 0.70789062 0 0 Z " fill="#E7B2C5" transform="translate(64,59)"/>
<path d="M0 0 C0.33 0.66 0.66 1.32 1 2 C1.61875 2.226875 2.2375 2.45375 2.875 2.6875 C6.17135464 4.72348375 6.74733525 7.42095785 8 11 C8.39764263 12.98821313 8.75455166 14.98732362 9 17 C8.34 17.33 7.68 17.66 7 18 C6.87625 17.071875 6.87625 17.071875 6.75 16.125 C6.20605562 13.82027141 6.20605562 13.82027141 4 12.9375 C3.34 12.628125 2.68 12.31875 2 12 C1.67 11.01 1.34 10.02 1 9 C0.34 9 -0.32 9 -1 9 C-1 8.34 -1 7.68 -1 7 C2.875 8.875 2.875 8.875 4 10 C3.72965366 7.56282742 3.72965366 7.56282742 3 5 C2.01 4.34 1.02 3.68 0 3 C0 2.01 0 1.02 0 0 Z " fill="#8D695A" transform="translate(79,23)"/>
<path d="M0 0 C0.98120464 3.05263664 0.98120464 4.94736336 0 8 C0.66 8 1.32 8 2 8 C2 8.66 2 9.32 2 10 C-1.63 9.67 -5.26 9.34 -9 9 C-9.33 9.66 -9.66 10.32 -10 11 C-9.62565384 8.30353781 -9.22252008 7.20477603 -7.1875 5.33203125 C-6.1046875 4.57986328 -6.1046875 4.57986328 -5 3.8125 C-4.278125 3.30332031 -3.55625 2.79414062 -2.8125 2.26953125 C-2.214375 1.85058594 -1.61625 1.43164062 -1 1 C-0.67 0.67 -0.34 0.34 0 0 Z " fill="#F2DAD9" transform="translate(38,40)"/>
<path d="M0 0 C4.5990566 4.24528302 4.5990566 4.24528302 6.0625 7 C5.96474678 10.1281029 3.97583243 11.67549125 2 14 C1.22166466 16.18214568 1.22166466 16.18214568 1 18 C0.01 17.67 -0.98 17.34 -2 17 C-1.34 17 -0.68 17 0 17 C0.25028811 15.41986783 0.47440946 13.83557694 0.6875 12.25 C0.81511719 11.36828125 0.94273438 10.4865625 1.07421875 9.578125 C0.98397191 6.44323483 0.07384637 5.28176413 -2 3 C-1.34 2.01 -0.68 1.02 0 0 Z " fill="#EDE2E3" transform="translate(68,67)"/>
<path d="M0 0 C0 0.66 0 1.32 0 2 C0.66 2.33 1.32 2.66 2 3 C1.04956626 4.33897583 0.08940853 5.67105427 -0.875 7 C-1.40867187 7.7425 -1.94234375 8.485 -2.4921875 9.25 C-2.98976563 9.8275 -3.48734375 10.405 -4 11 C-4.66 11 -5.32 11 -6 11 C-6.75 8.3125 -6.75 8.3125 -7 5 C-3.95652174 0 -3.95652174 0 0 0 Z " fill="#FCEDD7" transform="translate(15,34)"/>
<path d="M0 0 C1.32 0.33 2.64 0.66 4 1 C2.84826645 3.46800047 1.95216435 5.04783565 0 7 C-0.16677282 10.58343976 -0.16677282 10.58343976 0 14 C-2.5625 11.75 -2.5625 11.75 -5 9 C-5.11859828 5.204855 -2.37489406 2.75794149 0 0 Z " fill="#F6C7D2" transform="translate(22,59)"/>
<path d="M0 0 C0.33 0 0.66 0 1 0 C1.19392201 5.52677733 0.7479503 9.75614911 -1 15 C-1.33 14.34 -1.66 13.68 -2 13 C-2.66 13 -3.32 13 -4 13 C-4 10.03 -4 7.06 -4 4 C-3.01 3.67 -2.02 3.34 -1 3 C-0.67 2.01 -0.34 1.02 0 0 Z " fill="#FCD5D8" transform="translate(69,50)"/>
<path d="M0 0 C0.66 0.33 1.32 0.66 2 1 C1.96519531 1.73605469 1.93039063 2.47210938 1.89453125 3.23046875 C1.7380143 8.87253227 1.73862038 12.24382138 5 17 C5.1875 20.3125 5.1875 20.3125 5 23 C2.04816899 20.04816899 1.91336012 17.04488053 1 13 C-0.98 13.33 -2.96 13.66 -5 14 C-5 13.34 -5 12.68 -5 12 C-4.0409375 11.7215625 -4.0409375 11.7215625 -3.0625 11.4375 C-0.60824086 10.07407731 -0.60824086 10.07407731 -0.25 6.5625 C-0.09675675 4.37878363 0 2.18908673 0 0 Z " fill="#764C4A" transform="translate(87,40)"/>
<path d="M0 0 C3.43441742 0.22398375 5.38616616 0.42576834 7.9375 2.8125 C9 5 9 5 8.6875 7.25 C8.460625 7.8275 8.23375 8.405 8 9 C6.35 7.68 4.7 6.36 3 5 C2.67 5.66 2.34 6.32 2 7 C1.01 5.02 0.02 3.04 -1 1 C-0.67 0.67 -0.34 0.34 0 0 Z " fill="#F9E6CB" transform="translate(75,25)"/>
<path d="M0 0 C1.65 0 3.3 0 5 0 C5.33 2.97 5.66 5.94 6 9 C1.125 7.125 1.125 7.125 0 6 C-0.04080783 4.00041636 -0.04254356 1.99954746 0 0 Z " fill="#FAD5CE" transform="translate(57,55)"/>
<path d="M0 0 C1.8125 0.5 1.8125 0.5 4 2 C6.67803637 6.78460891 7.54663065 11.53369352 7 17 C6.34 17.66 5.68 18.32 5 19 C4.89042969 18.18015625 4.78085937 17.3603125 4.66796875 16.515625 C4.43013672 14.89914063 4.43013672 14.89914063 4.1875 13.25 C4.03667969 12.18265625 3.88585938 11.1153125 3.73046875 10.015625 C2.9772267 6.90598404 1.95201962 5.46007952 0 3 C0 2.01 0 1.02 0 0 Z " fill="#B68B68" transform="translate(58,23)"/>
<path d="M0 0 C3 1 3 1 4.25 2.75 C5.17574966 5.52724898 4.77341204 7.21571665 4 10 C3.34 10 2.68 10 2 10 C1.67 10.66 1.34 11.32 1 12 C-0.3271261 8.0186217 -0.06915913 4.14954773 0 0 Z " fill="#FDF7E4" transform="translate(64,25)"/>
<path d="M0 0 C1.98 0.495 1.98 0.495 4 1 C4.25 6.625 4.25 6.625 2 10 C1.01 10 0.02 10 -1 10 C-1.09978121 6.50765756 -0.77842938 3.40562852 0 0 Z " fill="#EFD7D0" transform="translate(72,51)"/>
<path d="M0 0 C2.31 1.98 4.62 3.96 7 6 C7.66 5.34 8.32 4.68 9 4 C10 5 10 5 10.09765625 6.84765625 C10.04882812 9.92382812 10.04882812 9.92382812 10 13 C9.34 13 8.68 13 8 13 C8 11.35 8 9.7 8 8 C7.01 8.33 6.02 8.66 5 9 C1.125 3.375 1.125 3.375 0 0 Z " fill="#C0AD99" transform="translate(63,21)"/>
<path d="M0 0 C0.66 0.33 1.32 0.66 2 1 C0.68 1.99 -0.64 2.98 -2 4 C-1.72459296 7.81813447 -1.72459296 7.81813447 0 11 C0.66 10.01 1.32 9.02 2 8 C2 10.31 2 12.62 2 15 C-3.66384778 11.14376321 -3.66384778 11.14376321 -4.62109375 7.88671875 C-4.84661084 5.93339378 -4.93338402 3.96517142 -5 2 C-2.625 0.9375 -2.625 0.9375 0 0 Z " fill="#6A2425" transform="translate(74,60)"/>
<path d="M0 0 C0.66 0 1.32 0 2 0 C1.71800273 2.4389764 1.42484385 4.87570933 1.125 7.3125 C1.04636719 8.00279297 0.96773438 8.69308594 0.88671875 9.40429688 C0.44056153 12.95639471 0.02019807 14.9697029 -2 18 C-2 16.68 -2 15.36 -2 14 C-3.32 13.67 -4.64 13.34 -6 13 C-4.35 12.67 -2.7 12.34 -1 12 C-1.01160156 11.21753906 -1.02320313 10.43507813 -1.03515625 9.62890625 C-1.04417969 8.61699219 -1.05320312 7.60507812 -1.0625 6.5625 C-1.07410156 5.55316406 -1.08570313 4.54382812 -1.09765625 3.50390625 C-1 1 -1 1 0 0 Z " fill="#733E3E" transform="translate(64,52)"/>
<path d="M0 0 C1.65 0.33 3.3 0.66 5 1 C3.61122646 4.35620271 2.08322035 6.07298728 -1 8 C-1.66 8 -2.32 8 -3 8 C-2.45276317 4.62537285 -1.9451 2.91765 0 0 Z " fill="#F1CCB6" transform="translate(31,38)"/>
<path d="M0 0 C-1.17387963 4.98898842 -4.18312389 6.98658122 -8.125 9.86328125 C-10 11 -10 11 -12 11 C-12 10.34 -12 9.68 -12 9 C-10.2421875 8.05598958 -8.484375 7.11197917 -6.7265625 6.16796875 C-4.69497635 4.95236507 -4.69497635 4.95236507 -3 2 C-4.32 1.67 -5.64 1.34 -7 1 C-4.53721199 -0.231394 -2.7204945 -0.07159196 0 0 Z " fill="#915950" transform="translate(39,37)"/>
<path d="M0 0 C1.4384798 0.06423833 2.87666999 0.14163547 4.3125 0.25 C1.81615329 2.88382667 -0.15670151 4.21659556 -3.6875 5.25 C-6 4.875 -6 4.875 -7.6875 4.25 C-5.84004374 0.30875998 -4.09551026 -0.02575793 0 0 Z " fill="#AB9D8D" transform="translate(79.6875,18.75)"/>
<path d="M0 0 C4.92307692 4.30769231 4.92307692 4.30769231 5.3125 7.8125 C5.209375 8.534375 5.10625 9.25625 5 10 C3.02 10 1.04 10 -1 10 C-0.649375 9.0925 -0.29875 8.185 0.0625 7.25 C0.96468779 4.12241564 1.13381507 2.94791919 0 0 Z " fill="#F6C0CF" transform="translate(8,61)"/>
<path d="M0 0 C0.33 0 0.66 0 1 0 C1.33 2.31 1.66 4.62 2 7 C2.66 7 3.32 7 4 7 C4.4021875 5.7934375 4.4021875 5.7934375 4.8125 4.5625 C5.204375 3.716875 5.59625 2.87125 6 2 C6.99 1.67 7.98 1.34 9 1 C8.690625 1.515625 8.38125 2.03125 8.0625 2.5625 C6.70940713 5.66665423 6.38640576 8.65115007 6 12 C5.67 11.01 5.34 10.02 5 9 C3.67696283 8.6278958 2.34262065 8.29369827 1 8 C-0.35439668 5.29120665 -0.06501451 2.99066732 0 0 Z " fill="#6F4B45" transform="translate(7,38)"/>
<path d="M0 0 C1 3 1 3 1 4 C1.99 4.33 2.98 4.66 4 5 C3.24074219 5.39832031 2.48148438 5.79664063 1.69921875 6.20703125 C0.70535156 6.73683594 -0.28851563 7.26664063 -1.3125 7.8125 C-2.29863281 8.33457031 -3.28476563 8.85664062 -4.30078125 9.39453125 C-6.61665068 10.7719876 -8.23611001 11.99530591 -10 14 C-9.61402985 11.20171644 -9.19863427 10.1794116 -7.0625 8.25 C-5 7 -5 7 -3 7 C-2.690625 6.030625 -2.38125 5.06125 -2.0625 4.0625 C-1 1 -1 1 0 0 Z " fill="#866354" transform="translate(18,25)"/>
<path d="M0 0 C1.11375 0.3403125 1.11375 0.3403125 2.25 0.6875 C2.25 1.3475 2.25 2.0075 2.25 2.6875 C0.27 3.6775 -1.71 4.6675 -3.75 5.6875 C-4.74 4.6975 -5.73 3.7075 -6.75 2.6875 C-4.29511132 0.41445492 -3.41240272 -0.38777304 0 0 Z " fill="#F6D9BA" transform="translate(20.75,31.3125)"/>
<path d="M0 0 C0.66 0.33 1.32 0.66 2 1 C1.34 4.3 0.68 7.6 0 11 C-0.99 10.34 -1.98 9.68 -3 9 C-2.5020163 5.26512223 -2.12508244 3.18762365 0 0 Z " fill="#F6D3B1" transform="translate(26,30)"/>
<path d="M0 0 C0.268125 0.78375 0.53625 1.5675 0.8125 2.375 C1.84814432 5.28114923 1.84814432 5.28114923 5 7 C0.34074074 6.37037037 0.34074074 6.37037037 -1.4375 4.4375 C-3.03838964 2.66047134 -3.03838964 2.66047134 -6.1875 2.8125 C-7.115625 2.874375 -8.04375 2.93625 -9 3 C-9.33 2.34 -9.66 1.68 -10 1 C-2.25 0 -2.25 0 0 0 Z " fill="#68363B" transform="translate(15,70)"/>
<path d="M0 0 C3.72652914 3.21252512 5.40095341 6.36276488 7 11 C7.1875 14.4375 7.1875 14.4375 7 17 C6.72414063 16.44441406 6.44828125 15.88882813 6.1640625 15.31640625 C5.35869969 13.7137883 4.54007969 12.11778922 3.7109375 10.52734375 C3.27007812 9.67269531 2.82921875 8.81804688 2.375 7.9375 C1.92898437 7.08027344 1.48296875 6.22304688 1.0234375 5.33984375 C0 3 0 3 0 0 Z " fill="#83442D" transform="translate(75,30)"/>
<path d="M0 0 C0.66666667 1.33333333 1.33333333 2.66666667 2 4 C2.391875 4.70125 2.78375 5.4025 3.1875 6.125 C3.455625 6.74375 3.72375 7.3625 4 8 C3.67 8.66 3.34 9.32 3 10 C2.01 9.67 1.02 9.34 0 9 C0 7.68 0 6.36 0 5 C-0.66 5 -1.32 5 -2 5 C-2 4.01 -2 3.02 -2 2 C-1.34 2 -0.68 2 0 2 C0 1.34 0 0.68 0 0 Z " fill="#D97880" transform="translate(15,65)"/>
<path d="M0 0 C2.875 -0.125 2.875 -0.125 6 0 C6.66 0.66 7.32 1.32 8 2 C6.35 2 4.7 2 3 2 C2.67 3.65 2.34 5.3 2 7 C1.34 7 0.68 7 0 7 C0 4.69 0 2.38 0 0 Z " fill="#C7857F" transform="translate(42,57)"/>
<path d="M0 0 C0 0.66 0 1.32 0 2 C-1.65 2.33 -3.3 2.66 -5 3 C-5 3.66 -5 4.32 -5 5 C-6.98 5.66 -8.96 6.32 -11 7 C-11.99 5.68 -12.98 4.36 -14 3 C-12.700625 3.0928125 -12.700625 3.0928125 -11.375 3.1875 C-7.07912018 2.94884001 -4.06855299 0 0 0 Z " fill="#5F4D38" transform="translate(84,20)"/>
<path d="M0 0 C9.85828397 0.21056529 9.85828397 0.21056529 13.125 3.5625 C13.74375 4.366875 14.3625 5.17125 15 6 C11.64132288 5.24029922 8.47876342 4.12906745 5.25 2.9375 C4.26515625 2.57527344 3.2803125 2.21304687 2.265625 1.83984375 C1.51796875 1.56269531 0.7703125 1.28554688 0 1 C0 0.67 0 0.34 0 0 Z " fill="#968074" transform="translate(56,17)"/>
<path d="M0 0 C0.33 0 0.66 0 1 0 C1.36717663 7.4659249 1.36717663 7.4659249 -0.375 10 C-2 11 -2 11 -4 11 C-3.52269162 9.5410574 -3.04308958 8.08286504 -2.5625 6.625 C-2.29566406 5.81289063 -2.02882813 5.00078125 -1.75390625 4.1640625 C-1 2 -1 2 0 0 Z " fill="#E5A68C" transform="translate(19,42)"/>
<path d="M0 0 C0.33 0 0.66 0 1 0 C1.33 4.62 1.66 9.24 2 14 C-0.48351743 11.51648257 -0.98041975 9.33062881 -2 6 C-2.33 5.01 -2.66 4.02 -3 3 C-2.01 3 -1.02 3 0 3 C0 2.01 0 1.02 0 0 Z " fill="#F1CAB2" transform="translate(62,33)"/>
<path d="M0 0 C2 0 2 0 4.625 2.5 C5.40875 3.325 6.1925 4.15 7 5 C6.67 5.99 6.34 6.98 6 8 C5.01 8.33 4.02 8.66 3 9 C2.01 6.03 1.02 3.06 0 0 Z " fill="#F3D0B4" transform="translate(78,32)"/>
<path d="M0 0 C0.66 0 1.32 0 2 0 C2.33 1.98 2.66 3.96 3 6 C1.68 5.67 0.36 5.34 -1 5 C-1.33 5.99 -1.66 6.98 -2 8 C-2.66 7.67 -3.32 7.34 -4 7 C-2.68 4.69 -1.36 2.38 0 0 Z " fill="#F5B5CA" transform="translate(81,69)"/>
<path d="M0 0 C6.15234375 -0.09765625 6.15234375 -0.09765625 8 0 C9 1 9 1 9.0625 4.5625 C9.041875 5.696875 9.02125 6.83125 9 8 C8.34 8 7.68 8 7 8 C7 6.02 7 4.04 7 2 C4.69 1.67 2.38 1.34 0 1 C0 0.67 0 0.34 0 0 Z " fill="#8E5751" transform="translate(43,56)"/>
<path d="M0 0 C1.32 0.66 2.64 1.32 4 2 C4 4.31 4 6.62 4 9 C1.4375 6.75 1.4375 6.75 -1 4 C-0.8125 1.6875 -0.8125 1.6875 0 0 Z " fill="#EDB6C6" transform="translate(18,64)"/>
<path d="M0 0 C5.95703125 -0.29296875 5.95703125 -0.29296875 8 0 C8.99 0.99 9.98 1.98 11 3 C7.37 2.67 3.74 2.34 0 2 C0 1.34 0 0.68 0 0 Z " fill="#422926" transform="translate(30,49)"/>
<path d="M0 0 C0.66 0.66 1.32 1.32 2 2 C1.61121812 5.01305957 0.73543126 6.39685311 -1 9 C-0.67 9.66 -0.34 10.32 0 11 C-0.99 10.67 -1.98 10.34 -3 10 C-2.39009109 6.44219804 -1.4216319 3.3171411 0 0 Z " fill="#94686F" transform="translate(68,62)"/>
<path d="M0 0 C3.465 1.98 3.465 1.98 7 4 C6.67 5.32 6.34 6.64 6 8 C1.125 3.375 1.125 3.375 0 0 Z " fill="#F5E8D7" transform="translate(64,20)"/>
<path d="M0 0 C6.52307692 0.49230769 6.52307692 0.49230769 8.9375 3.0625 C9.288125 3.701875 9.63875 4.34125 10 5 C6.64566891 4.05066101 3.30753495 3.10251165 0 2 C0 1.34 0 0.68 0 0 Z " fill="#8A766B" transform="translate(23,12)"/>
<path d="M0 0 C0.33 1.32 0.66 2.64 1 4 C1.66 4 2.32 4 3 4 C2.67 5.98 2.34 7.96 2 10 C1.34 10 0.68 10 0 10 C0 6.7 0 3.4 0 0 Z " fill="#EFBFCD" transform="translate(64,59)"/>
<path d="M0 0 C4 4.75 4 4.75 4 7 C2.68 7 1.36 7 0 7 C-1.125 2.25 -1.125 2.25 0 0 Z " fill="#AF7B78" transform="translate(56,32)"/>
<path d="M0 0 C1.65 0.33 3.3 0.66 5 1 C4.67 1.99 4.34 2.98 4 4 C2.68 3.67 1.36 3.34 0 3 C0 2.01 0 1.02 0 0 Z " fill="#F4EDDA" transform="translate(75,25)"/>
<path d="M0 0 C3.40320742 1.01176437 4.75725331 1.64843582 6.8125 4.625 C7.204375 5.40875 7.59625 6.1925 8 7 C7.01 7.495 7.01 7.495 6 8 C4.02 5.36 2.04 2.72 0 0 Z " fill="#E2CDBF" transform="translate(26,14)"/>
<path d="M0 0 C2.475 0.99 2.475 0.99 5 2 C4.34 3.32 3.68 4.64 3 6 C2.34 6 1.68 6 1 6 C0.67 4.02 0.34 2.04 0 0 Z " fill="#E9CFC2" transform="translate(8,39)"/>
<path d="M0 0 C1.32 0.66 2.64 1.32 4 2 C4 2.66 4 3.32 4 4 C1.69 4.33 -0.62 4.66 -3 5 C-2.01 3.35 -1.02 1.7 0 0 Z " fill="#F5D7BA" transform="translate(35,33)"/>
<path d="M0 0 C0.66 0 1.32 0 2 0 C2 0.99 2 1.98 2 3 C2.99 3.33 3.98 3.66 5 4 C3.68 5.32 2.36 6.64 1 8 C0.67 5.36 0.34 2.72 0 0 Z " fill="#F6D6B1" transform="translate(28,30)"/>
</svg>
